<?xml version="1.0" encoding="utf-8"?>
<!-- Generator: Adobe Illustrator 20.1.0, SVG Export Plug-In . SVG Version: 6.00 Build 0)  -->
<svg version="1.1"
	 id="Layer_1" xmlns:cc="http://creativecommons.org/ns#" xmlns:dc="http://purl.org/dc/elements/1.1/" xmlns:rdf="http://www.w3.org/1999/02/22-rdf-syntax-ns#"
	 xmlns="http://www.w3.org/2000/svg" xmlns:xlink="http://www.w3.org/1999/xlink" x="0px" y="0px" viewBox="0 0 139.2 208.8"
	 style="enable-background:new 0 0 139.2 208.8;" xml:space="preserve">
<style type="text/css">
	.st0{fill:#FFFFFF;}
	.st1{fill:#E74C3C;}
	.st2{fill:#C0392B;}
</style>
<g>
	<path class="st0" d="M70.1,25.5c-24,0-43.5,19.5-43.5,43.5c0,24,19.5,43.5,43.5,43.5c24,0,43.5-19.5,43.5-43.5
		C113.6,45,94.2,25.5,70.1,25.5z"/>
	<g transform="translate(0 -1028.4)">
		<path class="st1" d="M69.6,1028.4c-38.4,0-69.6,31.2-69.6,69.6c0,12.4,3.3,23.9,9,34c0.9,1.7,1.9,3.3,3,4.9l57.6,100.3l57.6-100.3
			c0.9-1.3,1.7-2.7,2.4-4.1l0.5-0.8c5.6-10.1,9-21.6,9-34C139.2,1059.6,108,1028.4,69.6,1028.4z M69.6,1063.2
			c19.2,0,34.8,15.6,34.8,34.8c0,19.2-15.6,34.8-34.8,34.8c-19.2,0-34.8-15.6-34.8-34.8C34.8,1078.8,50.4,1063.2,69.6,1063.2z"/>
		<path class="st2" d="M69.6,1054.5c-24,0-43.5,19.5-43.5,43.5c0,24,19.5,43.5,43.5,43.5c24,0,43.5-19.5,43.5-43.5
			C113.1,1074,93.6,1054.5,69.6,1054.5z M69.6,1071.9c14.4,0,26.1,11.7,26.1,26.1c0,14.4-11.7,26.1-26.1,26.1s-26.1-11.7-26.1-26.1
			C43.5,1083.6,55.2,1071.9,69.6,1071.9z"/>
	</g>
</g>
</svg>
